<?xml version="1.0" encoding="utf-8"?>
<!-- Generator: Adobe Illustrator 24.2.1, SVG Export Plug-In . SVG Version: 6.00 Build 0)  -->
<svg version="1.1" id="Слой_1" xmlns="http://www.w3.org/2000/svg" xmlns:xlink="http://www.w3.org/1999/xlink" x="0px" y="0px"
	 viewBox="0 0 512 512" style="enable-background:new 0 0 512 512;" xml:space="preserve">
<style type="text/css">
	.st0{fill-rule:evenodd;clip-rule:evenodd;fill:#FFFFFF;}
	.st1{fill-rule:evenodd;clip-rule:evenodd;}
</style>
<g>
	<path class="st0" d="M32,504c-13.2,0-24-10.8-24-24V32C8,18.8,18.8,8,32,8h448c13.2,0,24,10.8,24,24v448c0,13.2-10.8,24-24,24H32z"
		/>
	<path d="M480,16c8.8,0,16,7.2,16,16v448c0,8.8-7.2,16-16,16H32c-8.8,0-16-7.2-16-16V32c0-8.8,7.2-16,16-16H480 M480,0H32
		C14.3,0,0,14.3,0,32v448c0,17.7,14.3,32,32,32h448c17.7,0,32-14.3,32-32V32C512,14.3,497.7,0,480,0L480,0z"/>
</g>
<g>
	<g>
		<polygon class="st0" points="182,408 182,146.7 231.2,146.7 231.2,104 280.8,104 280.8,146.7 330,146.7 330,408 		"/>
		<path d="M272.8,112v26.7v16h16H322V400H190V154.7h33.2h16v-16V112H272.8 M280.8,96h-49.6c-4.4,0-8,3.6-8,8v34.7H182
			c-4.4,0-8,3.6-8,8V408c0,4.4,3.6,8,8,8h148c4.4,0,8-3.6,8-8V146.7c0-4.4-3.6-8-8-8h-41.2V104C288.8,99.6,285.2,96,280.8,96
			L280.8,96z"/>
	</g>
	<g>
		<rect x="190" y="256" class="st1" width="132" height="144"/>
	</g>
</g>
</svg>
