<?xml version="1.0" encoding="utf-8"?>
<!-- Generator: Adobe Illustrator 24.2.1, SVG Export Plug-In . SVG Version: 6.00 Build 0)  -->
<svg version="1.1" id="Слой_1" xmlns="http://www.w3.org/2000/svg" xmlns:xlink="http://www.w3.org/1999/xlink" x="0px" y="0px"
	 viewBox="0 0 512 512" style="enable-background:new 0 0 512 512;" xml:space="preserve">
<style type="text/css">
	.st0{fill-rule:evenodd;clip-rule:evenodd;fill:#FFFFFF;}
	
		.st1{fill-rule:evenodd;clip-rule:evenodd;fill:none;stroke:#000000;stroke-width:16;stroke-linecap:round;stroke-linejoin:round;stroke-miterlimit:10;}
	
		.st2{fill-rule:evenodd;clip-rule:evenodd;fill:#FFFFFF;stroke:#000000;stroke-width:16;stroke-linecap:round;stroke-linejoin:round;stroke-miterlimit:10;}
</style>
<g>
	<path class="st0" d="M32,504c-13.2,0-24-10.8-24-24V32C8,18.8,18.8,8,32,8h448c13.2,0,24,10.8,24,24v448c0,13.2-10.8,24-24,24H32z"
		/>
	<path d="M480,16c8.8,0,16,7.2,16,16v448c0,8.8-7.2,16-16,16H32c-8.8,0-16-7.2-16-16V32c0-8.8,7.2-16,16-16H480 M480,0H32
		C14.3,0,0,14.3,0,32v448c0,17.7,14.3,32,32,32h448c17.7,0,32-14.3,32-32V32C512,14.3,497.7,0,480,0L480,0z"/>
</g>
<g>
	<path class="st1" d="M320,96c1.1,0,2,0.9,2,2v60c0,1.1-0.9,2-2,2c-1.1,0-2-0.9-2-2V98C318,96.9,318.9,96,320,96z"/>
	<path class="st1" d="M192,96c1.1,0,2,0.9,2,2v60c0,1.1-0.9,2-2,2s-2-0.9-2-2V98C190,96.9,190.9,96,192,96z"/>
	<path class="st2" d="M144,160h224v60c0,55.2-44.8,100-100,100h-24c-55.2,0-100-44.8-100-100V160z"/>
	<rect x="248" y="320" class="st1" width="16" height="96"/>
</g>
</svg>
