<?xml version="1.0" encoding="utf-8"?>
<!-- Generator: Adobe Illustrator 24.2.1, SVG Export Plug-In . SVG Version: 6.00 Build 0)  -->
<svg version="1.1" id="Слой_1" xmlns="http://www.w3.org/2000/svg" xmlns:xlink="http://www.w3.org/1999/xlink" x="0px" y="0px"
	 viewBox="0 0 512 512" style="enable-background:new 0 0 512 512;" xml:space="preserve">
<style type="text/css">
	.st0{fill:#FFFFFF;}
	.st1{fill:none;stroke:#000000;stroke-width:16;stroke-linecap:round;stroke-linejoin:round;stroke-miterlimit:10;}
</style>
<g>
	<path class="st0" d="M223.8,504c-57.6,0-111.8-22.4-152.6-63.2S8,345.8,8,288.2v-64.4C8,166.2,30.4,112,71.2,71.2S166.2,8,223.8,8
		H288c57.7,0,111.9,22.5,152.7,63.3S504,166.3,504,224v64.2c0,57.6-22.4,111.8-63.2,152.6s-95,63.2-152.6,63.2H223.8z"/>
	<path d="M288,16c28.1,0,55.3,5.5,81,16.3c24.8,10.5,47,25.5,66.1,44.6s34.1,41.4,44.6,66.1c10.8,25.6,16.3,52.9,16.3,81v64.2
		c0,28.1-5.5,55.3-16.3,80.9c-10.5,24.7-25.4,47-44.5,66.1s-41.3,34.1-66.1,44.5c-25.6,10.8-52.8,16.3-80.9,16.3h-64.4
		c-28.1,0-55.3-5.5-80.9-16.3c-24.7-10.5-47-25.4-66.1-44.5s-34.1-41.3-44.5-66.1C21.5,343.5,16,316.3,16,288.2v-64.4
		c0-28.1,5.5-55.3,16.3-80.9c10.5-24.7,25.4-47,44.5-66.1s41.3-34.1,66.1-44.5C168.5,21.5,195.7,16,223.8,16H288 M288,0h-64.2
		C100.2,0,0,100.2,0,223.8v64.4C0,411.8,100.2,512,223.8,512h64.4C411.8,512,512,411.8,512,288.2V224C512,100.3,411.7,0,288,0L288,0
		z"/>
</g>
<circle class="st1" cx="256" cy="256" r="24"/>
<path id="Arrow" class="st1" d="M212,300L84,428 M216,296v64 M216,296h-64"/>
<path id="Arrow_1_" class="st1" d="M212,212L84,84 M216,216v-64 M216,216h-64"/>
<path id="Arrow_2_" class="st1" d="M300,212L428,84 M296,216v-64 M296,216h64"/>
<path id="Arrow_3_" class="st1" d="M300,300l128,128 M296,296v64 M296,296h64"/>
</svg>
