<?xml version="1.0" encoding="utf-8"?>
<!-- Generator: Adobe Illustrator 24.2.1, SVG Export Plug-In . SVG Version: 6.00 Build 0)  -->
<svg version="1.1" id="Слой_1" xmlns="http://www.w3.org/2000/svg" xmlns:xlink="http://www.w3.org/1999/xlink" x="0px" y="0px"
	 viewBox="0 0 512 512" style="enable-background:new 0 0 512 512;" xml:space="preserve">
<style type="text/css">
	.st0{fill-rule:evenodd;clip-rule:evenodd;fill:#FFFFFF;}
	.st1{fill:#FFFFFF;}
</style>
<g>
	<circle class="st0" cx="447.2" cy="255.5" r="56"/>
	<path d="M447.2,207.5c26.5,0,48,21.5,48,48c0,26.5-21.5,48-48,48s-48-21.5-48-48C399.2,229,420.8,207.5,447.2,207.5 M447.2,191.5
		c-35.3,0-64,28.7-64,64c0,35.3,28.7,64,64,64c35.3,0,64-28.7,64-64C511.2,220.2,482.6,191.5,447.2,191.5L447.2,191.5z"/>
</g>
<g>
	<polygon class="st1" points="6.8,14.7 384.4,255.5 6.8,496.3 	"/>
	<path d="M14.8,29.3l354.7,226.2L14.8,481.7V29.3 M-1.2,0.1v510.9l400.5-255.4L-1.2,0.1L-1.2,0.1z"/>
</g>
</svg>
