<?xml version="1.0" encoding="utf-8"?>
<!-- Generator: Adobe Illustrator 24.2.1, SVG Export Plug-In . SVG Version: 6.00 Build 0)  -->
<svg version="1.1" id="Слой_1" xmlns="http://www.w3.org/2000/svg" xmlns:xlink="http://www.w3.org/1999/xlink" x="0px" y="0px"
	 viewBox="0 0 512 512" style="enable-background:new 0 0 512 512;" xml:space="preserve">
<style type="text/css">
	.st0{fill-rule:evenodd;clip-rule:evenodd;fill:#FFFFFF;}
</style>
<g>
	<path class="st0" d="M28.1,504c11.9-14.5,21.6-38.8,29.1-72.6c10.3-46.8,15.7-109.7,15.2-177.2C72,188,66,125.7,55.6,78.7
		C48.3,45.9,39.1,22.2,28.3,8H256c46.1,0,107.5,32,160.5,83.5C471.3,144.8,504,206.3,504,256c0,49.7-32.7,111.2-87.5,164.5
		C363.5,472,302.1,504,256,504H28.1z"/>
	<path d="M256,16c21.7,0,47.7,7.7,75.3,22.3c27.2,14.4,54.7,34.8,79.6,58.9c25.3,24.6,46.5,51.9,61.3,78.9
		c15.5,28.3,23.8,55.9,23.8,79.8c0,23.9-8.2,51.5-23.8,79.8c-14.8,27.1-36.1,54.4-61.3,78.9c-24.8,24.2-52.4,44.5-79.6,58.9
		C303.7,488.3,277.7,496,256,496H43.2c8.7-15.2,16-36.4,21.8-62.9c10.4-47.3,15.9-110.9,15.4-179C80,187.4,73.9,124.5,63.4,77
		c-5.7-25.7-12.5-46-20.5-61H256 M1,0C0.7,0,0.3,0,0,0h2C1.7,0,1.3,0,1,0L1,0z M256,0H2c79.6,4.1,87.6,506.1-2,512h256
		c101.5,0,256-143.3,256-256S357.5,0,256,0L256,0z"/>
</g>
</svg>
