<?xml version="1.0" encoding="utf-8"?>
<!-- Generator: Adobe Illustrator 24.2.1, SVG Export Plug-In . SVG Version: 6.00 Build 0)  -->
<svg version="1.1" id="Слой_1" xmlns="http://www.w3.org/2000/svg" xmlns:xlink="http://www.w3.org/1999/xlink" x="0px" y="0px"
	 viewBox="0 0 512 512" style="enable-background:new 0 0 512 512;" xml:space="preserve">
<style type="text/css">
	.st0{fill:#FFFFFF;stroke:#000000;stroke-width:16;stroke-linecap:round;stroke-linejoin:round;stroke-miterlimit:10;}
</style>
<path class="st0" d="M472.2,504H39.8C22.2,504,8,489.8,8,472.2V39.8C8,22.2,22.2,8,39.8,8H472c17.7,0,32,14.3,32,32v432.2
	C504,489.8,489.8,504,472.2,504z"/>
<g>
	<path d="M241.8,297.6c0.1-6.2,0.3-11.3,0.8-15.3c0.4-4,1.3-7.6,2.7-10.7c1.4-3.1,3.4-6.2,5.9-9c2.6-2.9,6-6.3,10.3-10.3
		c2.9-3,5.9-6.1,9-9.3c3.1-3.2,5.9-6.5,8.4-10c2.5-3.5,4.6-7.2,6.3-11c1.6-3.9,2.5-8,2.5-12.3c0-9.4-2.7-16.5-8.1-21.5
		c-5.4-4.9-13.2-7.4-23.2-7.4c-4,0-8,0.5-11.8,1.5c-3.8,1-7.2,2.5-10.2,4.6c-3,2.1-5.4,4.8-7.2,8c-1.8,3.2-2.7,7.1-2.7,11.6h-23.9
		c0.1-7.2,1.6-13.7,4.5-19.5c2.9-5.8,6.9-10.7,11.8-14.7c4.9-4,10.8-7.1,17.6-9.2c6.8-2.1,14.1-3.2,21.9-3.2
		c8.7,0,16.5,1.1,23.3,3.3c6.8,2.2,12.6,5.4,17.4,9.6c4.7,4.2,8.3,9.3,10.8,15.4c2.5,6,3.7,12.9,3.7,20.7c0,6.2-1.1,12-3.2,17.5
		c-2.2,5.5-4.9,10.6-8.3,15.5c-3.4,4.9-7.1,9.4-11.3,13.6c-4.2,4.2-8.3,8.1-12.3,11.7c-2.6,2.5-4.6,4.9-6,7.1
		c-1.4,2.2-2.5,4.5-3.2,6.8c-0.7,2.3-1.1,4.8-1.3,7.4c-0.2,2.6-0.3,5.6-0.3,9H241.8z M239.1,338.1c0-4.1,1.2-7.6,3.7-10.3
		c2.5-2.8,6.1-4.1,11-4.1c4.9,0,8.6,1.4,11.2,4.1c2.5,2.8,3.8,6.2,3.8,10.3c0,4-1.3,7.3-3.8,9.9c-2.5,2.7-6.3,4-11.2,4
		c-4.9,0-8.6-1.3-11-4S239.1,342,239.1,338.1z"/>
</g>
</svg>
