<?xml version="1.0" encoding="utf-8"?>
<!-- Generator: Adobe Illustrator 24.2.1, SVG Export Plug-In . SVG Version: 6.00 Build 0)  -->
<svg version="1.1" id="Слой_1" xmlns="http://www.w3.org/2000/svg" xmlns:xlink="http://www.w3.org/1999/xlink" x="0px" y="0px"
	 viewBox="0 0 512 512" style="enable-background:new 0 0 512 512;" xml:space="preserve">
<style type="text/css">
	.st0{fill-rule:evenodd;clip-rule:evenodd;fill:#FFFFFF;}
</style>
<g>
	<path class="st0" d="M105.7,504c12-16.2,22-42.9,29.9-79.7c9.7-45.3,15.5-103.5,16.2-163.7c0.7-61.9-4-121.2-13.2-167.2
		c-7.9-39.4-18.8-68-32.4-85.4h149.8c51.2,1.1,113.2,34.2,165.8,88.5c50.7,52.3,82.2,113.4,82.2,159.5
		c-0.5,49.9-33.4,111.5-88,164.7C363.3,472.1,301.9,504,256,504C256,504,105.7,504,105.7,504z"/>
	<path d="M255.8,16c49.1,1.1,109,33.2,160.2,86.1c23.9,24.6,43.9,51.9,58.1,79c14.3,27.3,21.9,53.2,21.9,74.9
		c-0.3,24-8.6,51.7-24.2,80c-14.9,27.1-36.1,54.4-61.3,79c-24.8,24.1-52.2,44.5-79.3,58.8C303.6,488.3,277.6,496,256,496H120.1
		c1.4-2.7,2.8-5.5,4.2-8.5c7.3-16,13.7-36.7,19.1-61.5c9.8-45.8,15.7-104.6,16.4-165.3c0.7-62.4-4-122.4-13.4-168.9
		c-5.2-25.8-11.8-47.5-19.5-64.4C125,23.4,123,19.6,121,16H255.8 M256,0H85.6c82.4,47.1,72.7,472.7,0,512H256
		c101.4,0,254.9-142.9,256-256C511.8,154.9,372.2,2.4,256,0L256,0z"/>
</g>
<path d="M0,512c19.9-4.7,35.7-35.3,47.8-86.6C59.2,377,65,313.5,64.1,246.5C63.3,182.9,56.5,123.2,45,78.4C32.9,31.5,18,3.8,0,0
	h23.9c37,41.3,55,151.8,56.2,246.3C81,314.5,75,379.4,63.3,429.1c-9.2,39-24.3,66.7-39.2,82.9H0z"/>
</svg>
